<svg xmlns="http://www.w3.org/2000/svg" width="460" height="190" viewBox="0 0 460 190" role="img" aria-labelledby="title desc"><title id="title">Most used languages</title><desc id="desc">Language distribution across original public repositories.</desc><rect width="460" height="190" rx="3" fill="#0b0b0b"/><rect x=".5" y=".5" width="459" height="189" rx="2.5" fill="none" stroke="#292929"/><style>text{font-family:Inter,Segoe UI,Arial,sans-serif}.label{font-size:11px;letter-spacing:1.5px;fill:#9e9e99}.value{font-size:25px;font-weight:700;fill:#f7f7f2}.small{font-size:12px;fill:#9e9e99}</style><path d="M0 4h104" stroke="#ff6b45" stroke-width="8"/><text x="25" y="42" class="label">LANGUAGES / OWN REPOSITORIES</text><circle cx="29" cy="65" r="4" fill="#ff6b45"/><text x="41" y="69" class="small" fill="#f7f7f2">Python</text><rect x="170" y="59" width="190" height="7" rx="1" fill="#101010"/><rect x="170" y="59" width="79.3" height="7" rx="1" fill="#ff6b45"/><text x="372" y="69" class="small">41.8%</text><circle cx="29" cy="84" r="4" fill="#db5b3b"/><text x="41" y="88" class="small" fill="#f7f7f2">HTML</text><rect x="170" y="78" width="190" height="7" rx="1" fill="#101010"/><rect x="170" y="78" width="53.1" height="7" rx="1" fill="#db5b3b"/><text x="372" y="88" class="small">27.9%</text><circle cx="29" cy="103" r="4" fill="#b84c32"/><text x="41" y="107" class="small" fill="#f7f7f2">JavaScript</text><rect x="170" y="97" width="190" height="7" rx="1" fill="#101010"/><rect x="170" y="97" width="25.1" height="7" rx="1" fill="#b84c32"/><text x="372" y="107" class="small">13.2%</text><circle cx="29" cy="122" r="4" fill="#913d29"/><text x="41" y="126" class="small" fill="#f7f7f2">TypeScript</text><rect x="170" y="116" width="190" height="7" rx="1" fill="#101010"/><rect x="170" y="116" width="16.2" height="7" rx="1" fill="#913d29"/><text x="372" y="126" class="small">8.5%</text><circle cx="29" cy="141" r="4" fill="#6d3023"/><text x="41" y="145" class="small" fill="#f7f7f2">CSS</text><rect x="170" y="135" width="190" height="7" rx="1" fill="#101010"/><rect x="170" y="135" width="16.1" height="7" rx="1" fill="#6d3023"/><text x="372" y="145" class="small">8.5%</text><circle cx="29" cy="160" r="4" fill="#4b251e"/><text x="41" y="164" class="small" fill="#f7f7f2">Dockerfile</text><rect x="170" y="154" width="190" height="7" rx="1" fill="#101010"/><rect x="170" y="154" width="2.0" height="7" rx="1" fill="#4b251e"/><text x="372" y="164" class="small">0.1%</text></svg>